<svg id="Layer_1" data-name="Layer 1" xmlns="http://www.w3.org/2000/svg" viewBox="0 0 512 347.89"><title>Artboard 6 copy 2</title><path d="M37.27,343.5H3.08A3.08,3.08,0,0,1,0,340.42V139.59a3.08,3.08,0,0,1,3.08-3.08H37.27a3.07,3.07,0,0,1,3.08,3.08V340.42A3.07,3.07,0,0,1,37.27,343.5Z"/><path d="M157.85,330.87h-.55c-8,11-22.24,17-36.24,17-39.53,0-62-36-62-72.48,0-35.68,22.79-71.1,61.49-71.1,14,0,28.28,6,36.79,16.75h.55V113.78a3.08,3.08,0,0,1,3.08-3.08H193.2a3.08,3.08,0,0,1,3.08,3.08V340.42a3.08,3.08,0,0,1-3.08,3.08H160.93a3.08,3.08,0,0,1-3.08-3.08ZM161.69,276c0-18.11-12.08-37.61-31.84-37.61S98,257.85,98,276s12.08,37.89,31.85,37.89S161.69,294.08,161.69,276Z"/><path d="M353.9,295.36c-7.38,31.45-33.19,52.53-68.68,52.53-42.27,0-70.82-29.92-70.82-71.65,0-35.4,20.47-62.22,52.06-69.78C319.11,193.87,366.27,242.66,353.9,295.36ZM253.38,276.24c0,18.12,12.08,37.61,31.84,37.61s31.85-19.49,31.85-37.61c0-18.67-12.08-37.89-31.85-37.89S253.38,257.57,253.38,276.24Z"/><path d="M459.67,0a55.41,55.41,0,0,0-54,33.6,38.75,38.75,0,0,0-64.22,0A55.42,55.42,0,1,0,345.82,56c.16-14.14,10.34-26.51,24.38-28.14a27.71,27.71,0,0,1,31,27.5A55.39,55.39,0,1,0,459.67,0ZM334.6,58.92a44.32,44.32,0,1,1-47.78-47.78A44.5,44.5,0,0,1,334.6,58.92ZM460.22,99.48a44.32,44.32,0,1,1,40.56-40.56A44.36,44.36,0,0,1,460.22,99.48Z"/><path d="M456.61,35.92A27.69,27.69,0,0,0,429,61.45a2,2,0,0,0,2,2.17h7.11a2,2,0,0,0,2-1.76,16.62,16.62,0,0,1,33.05,0,2,2,0,0,0,2,1.76h7.12a2,2,0,0,0,2-2.17A27.71,27.71,0,0,0,456.61,35.92Z"/><path d="M290.43,35.92a27.69,27.69,0,0,0-27.61,25.53,2,2,0,0,0,2,2.17h7.13a2,2,0,0,0,2-1.75,16.62,16.62,0,0,1,33.06,0,2,2,0,0,0,2,1.75h7.13a2,2,0,0,0,2-2.17A27.69,27.69,0,0,0,290.43,35.92Z"/></svg>